<svg width="256" height="264" viewBox="0 0 256 264" fill="none" xmlns="http://www.w3.org/2000/svg">
<g clip-path="url(#clip0_2_2)">
<path fill-rule="evenodd" clip-rule="evenodd" d="M156.377 4.83357C157.952 6.78963 158.756 9.42903 160.363 14.7078L195.468 130.028C182.489 123.295 168.378 118.439 153.498 115.819L130.641 38.5785C130.267 37.3146 129.106 36.4477 127.788 36.4477C126.467 36.4477 125.304 37.3192 124.933 38.5874L102.353 115.78C87.4032 118.388 73.2289 123.253 60.1941 130.011L95.4713 14.6811C97.0832 9.41136 97.8893 6.7765 99.4649 4.82405C100.856 3.10041 102.665 1.76177 104.72 0.935697C107.048 0 109.804 0 115.315 0H140.511C146.029 0 148.788 0 151.118 0.937659C153.175 1.77054 154.986 3.10678 156.377 4.83357Z" fill="white"/>
<path fill-rule="evenodd" clip-rule="evenodd" d="M160.577 135.516C154.79 140.465 143.239 143.84 129.934 143.84C113.604 143.84 99.9165 138.756 96.2845 131.918C94.9861 135.837 94.6949 140.322 94.6949 143.187C94.6949 143.187 93.8395 157.255 103.624 167.039C103.624 161.958 107.743 157.841 112.823 157.841C121.531 157.841 121.521 165.437 121.514 171.601C121.513 171.786 121.513 171.969 121.513 172.15C121.513 181.506 127.231 189.526 135.363 192.908C134.148 190.41 133.467 187.603 133.467 184.64C133.467 175.717 138.705 172.394 144.793 168.532C149.638 165.46 155.02 162.047 158.729 155.2C160.664 151.627 161.763 147.535 161.763 143.187C161.763 140.513 161.348 137.935 160.577 135.516Z" fill="#FF5D01"/>
<path fill-rule="evenodd" clip-rule="evenodd" d="M160.577 135.516C154.79 140.465 143.239 143.84 129.934 143.84C113.604 143.84 99.9165 138.756 96.2845 131.918C94.9861 135.837 94.6949 140.322 94.6949 143.187C94.6949 143.187 93.8395 157.255 103.624 167.039C103.624 161.958 107.743 157.841 112.823 157.841C121.531 157.841 121.521 165.437 121.514 171.601C121.513 171.786 121.513 171.969 121.513 172.15C121.513 181.506 127.231 189.526 135.363 192.908C134.148 190.41 133.467 187.603 133.467 184.64C133.467 175.717 138.705 172.394 144.793 168.532C149.638 165.46 155.02 162.047 158.729 155.2C160.664 151.627 161.763 147.535 161.763 143.187C161.763 140.513 161.348 137.935 160.577 135.516Z" fill="url(#paint0_linear_2_2)"/>
<path fill-rule="evenodd" clip-rule="evenodd" d="M28.0135 221.639C43.8879 221.639 52.2141 227.32 52.2141 238.058L52.2144 248.522C52.2195 253.476 52.3049 256.226 52.6025 258.833L52.6649 259.353C52.7738 260.219 52.9072 261.085 53.0701 262.026H45.3663C44.9773 259.535 44.8216 256.812 44.8216 253.933C40.2305 260.391 32.3712 263.504 19.376 263.504C7.6259 263.504 0 259.224 0 251.832C0 248.33 1.47849 245.295 4.12421 243.35C6.92556 241.327 10.5829 239.926 20.4654 239.381L44.7438 237.981V237.202C44.7438 230.977 38.5186 227.32 28.0135 227.32C17.3528 227.32 10.8941 230.355 9.6491 236.113H1.47849C2.72354 227.553 12.6839 221.639 28.0135 221.639ZM86.8735 221.639C100.258 221.639 108.895 225.219 112.786 231.289L106.483 234.323C102.748 229.499 97.0673 227.32 86.1732 227.32C76.6019 227.32 72.1664 229.421 72.1664 233.467C72.1664 236.658 75.0456 238.136 80.1814 238.525L99.0905 240.004C109.207 240.86 113.175 244.128 113.175 250.509C113.175 258.213 106.716 263.504 90.6087 263.504C76.3685 263.504 68.0422 259.458 63.2955 252.299L69.4429 248.953C72.9446 254.633 80.1814 257.746 91.6203 257.746C101.036 257.746 105.783 255.567 105.783 250.976C105.783 247.785 103.915 246.54 97.7677 246.073L79.0142 244.595C69.7542 243.817 64.8518 240.549 64.8518 233.779C64.8518 226.231 73.1002 221.639 86.8735 221.639ZM228.064 221.639C244.639 221.639 256 230.043 256 242.572C256 255.1 244.639 263.504 228.064 263.504C211.49 263.504 200.129 255.1 200.129 242.572C200.129 230.043 211.49 221.639 228.064 221.639ZM136.567 209.967V223.118H156.021V228.954H136.567V247.007C136.567 253.699 140.225 256.345 146.994 256.345C150.185 256.345 153.453 255.878 156.177 255.256V261.559C154.231 262.415 149.796 263.115 146.139 263.115C131.743 263.115 129.097 255.411 129.097 247.708V228.954H116.88V223.118H129.097V213.002L136.567 209.967ZM191.77 221.951C193.871 221.951 195.272 222.028 196.906 222.418V229.577C195.116 229.265 193.793 229.11 191.692 229.11C185.545 229.11 182.043 230.822 179.319 233.856C176.207 237.125 175.117 241.871 175.117 247.474V262.026H167.725V223.118H174.573V234.401C176.829 226.853 183.444 221.951 191.77 221.951ZM44.7438 243.039L21.9439 244.439C10.972 245.14 7.85935 247.163 7.85935 251.676C7.85935 255.878 12.8395 257.979 21.8661 257.979C35.1725 257.979 44.7438 252.999 44.7438 244.828V243.039ZM228.064 227.787C215.847 227.787 207.988 233.545 207.988 242.572C207.988 251.598 215.847 257.357 228.064 257.357C240.203 257.357 248.141 251.598 248.141 242.572C248.141 233.545 240.203 227.787 228.064 227.787Z" fill="white"/>
</g>
<defs>
<linearGradient id="paint0_linear_2_2" x1="186.634" y1="106.915" x2="157.212" y2="168.51" gradientUnits="userSpaceOnUse">
<stop stop-color="#FF1639"/>
<stop offset="1" stop-color="#FF1639" stop-opacity="0"/>
</linearGradient>
<clipPath id="clip0_2_2">
<rect width="256" height="264" fill="white"/>
</clipPath>
</defs>
</svg>
