<svg width="466" height="423" viewBox="0 0 466 423" fill="none" xmlns="http://www.w3.org/2000/svg">
<path d="M21 32C21 14.3269 35.3269 0 53 0H413C430.673 0 445 14.3269 445 32V344C445 361.673 430.673 376 413 376H53C35.3269 376 21 361.673 21 344V32Z" fill="#535B65"/>
<path d="M69 369.387H391V423H69V369.387Z" fill="url(#paint0_linear_14_4)"/>
<path d="M402.215 0H418C444.51 0 466 21.1405 466 47.2186V375.781C466 401.86 444.51 423 418 423H391V369.351H402.215C414.603 369.351 424.645 354.57 424.645 336.337V33.0146C424.645 14.7811 414.603 0 402.215 0Z" fill="url(#paint1_linear_14_4)"/>
<path d="M63.785 0H48C21.4903 0 0 21.1405 0 47.2186V375.781C0 401.86 21.4903 423 48 423H75V369.351H63.785C51.3974 369.351 41.3551 354.57 41.3551 336.337V33.0146C41.3551 14.7811 51.3974 0 63.785 0Z" fill="url(#paint2_linear_14_4)"/>
<path d="M322.053 178.712C318.245 178.712 314.949 177.382 312.167 174.721C309.384 172.06 307.992 168.439 307.992 163.856C307.992 159.274 309.384 155.652 312.167 152.991C314.949 150.33 318.245 149 322.053 149C326.008 149 329.303 150.33 331.939 152.991C334.722 155.652 336.114 159.274 336.114 163.856C336.114 168.439 334.722 172.06 331.939 174.721C329.303 177.382 326.008 178.712 322.053 178.712ZM317.439 209.977H290C288.895 209.977 288 209.081 288 207.977V196.677C288 195.572 288.895 194.677 290 194.677H333.455C334.559 194.677 335.455 195.572 335.455 196.677V257.871C335.455 268.07 336.846 274.944 339.629 278.492C342.412 281.892 346.586 283.592 352.152 283.592C356.399 283.592 360.28 283.074 363.795 282.04C366.116 281.384 368.114 280.698 369.787 279.983C371.068 279.435 372.612 280.174 372.845 281.547L374.753 292.78C374.9 293.645 374.466 294.505 373.674 294.884C372.992 295.21 372.188 295.585 371.265 296.009C369.654 296.6 367.75 297.191 365.553 297.783C363.503 298.374 361.159 298.891 358.523 299.335C356.033 299.778 353.396 300 350.614 300C344.169 300 338.823 299.113 334.576 297.339C330.328 295.565 326.886 292.905 324.25 289.357C321.76 285.809 320.003 281.448 318.977 276.275C317.952 270.953 317.439 264.818 317.439 257.871V209.977Z" fill="#E0DDDD"/>
<path d="M104 133.289C104 129.973 106.041 126.981 109.177 125.904C122.579 121.301 135.279 119 147.277 119C154.681 119 161.574 120.146 167.957 122.437C174.596 124.473 180.213 127.783 184.809 132.365C195.787 123.455 207.532 119 220.043 119C226.17 119 231.915 120.146 237.277 122.437C242.894 124.728 247.745 128.165 251.83 132.747C256.17 137.329 259.617 143.057 262.17 149.93C264.723 156.804 266 164.823 266 173.987V292C266 296.418 262.418 300 258 300H245.277C240.858 300 237.277 296.418 237.277 292V173.224C237.277 164.059 235.234 157.058 231.149 152.222C227.064 147.385 221.957 144.966 215.83 144.966C212.766 144.966 209.574 145.73 206.255 147.257C202.936 148.785 199.872 151.203 197.064 154.513C198.596 160.368 199.362 166.859 199.362 173.987V223.648C199.362 228.066 195.78 231.648 191.362 231.648H178.638C174.22 231.648 170.638 228.066 170.638 223.648V173.605C170.638 164.696 169.234 157.695 166.426 152.603C163.617 147.512 158.128 144.966 149.957 144.966C144.851 144.966 139.106 146.112 132.723 148.403V292C132.723 296.418 129.142 300 124.723 300H112C107.582 300 104 296.418 104 292V133.289Z" fill="#E0DDDD"/>
<defs>
<linearGradient id="paint0_linear_14_4" x1="34.5" y1="410.212" x2="410.832" y2="3.1802" gradientUnits="userSpaceOnUse">
<stop stop-color="#2F353D"/>
<stop offset="1" stop-color="#343739"/>
</linearGradient>
<linearGradient id="paint1_linear_14_4" x1="34.5" y1="410.212" x2="410.832" y2="3.1802" gradientUnits="userSpaceOnUse">
<stop stop-color="#2F353D"/>
<stop offset="1" stop-color="#343739"/>
</linearGradient>
<linearGradient id="paint2_linear_14_4" x1="34.5" y1="410.212" x2="410.832" y2="3.1802" gradientUnits="userSpaceOnUse">
<stop stop-color="#2F353D"/>
<stop offset="1" stop-color="#343739"/>
</linearGradient>
</defs>
</svg>
