<svg width="67" height="67" viewBox="0 0 67 67" fill="none" xmlns="http://www.w3.org/2000/svg">
<path d="M4.09808 9.56218V24.0133L19.9152 39.8304C19.3401 40.6213 18.9806 41.6278 18.9806 42.6344C18.9806 43.5871 19.2631 44.5184 19.7924 45.3106C20.3217 46.1028 21.074 46.7202 21.9542 47.0848C22.8344 47.4493 23.803 47.5447 24.7374 47.3589C25.6718 47.173 26.5301 46.7142 27.2038 46.0406C27.8774 45.3669 28.3362 44.5086 28.5221 43.5741C28.708 42.6397 28.6126 41.6712 28.248 40.791C27.8834 39.9108 27.266 39.1585 26.4738 38.6292C25.6817 38.0999 24.7503 37.8174 23.7976 37.8174C22.7192 37.8174 21.7845 38.1768 20.9937 38.752L5.536 23.4381V9.56218C7.83667 9.2027 9.63408 7.26151 9.63408 4.81704C9.63408 3.53948 9.12657 2.31425 8.2232 1.41088C7.31983 0.507508 6.0946 0 4.81704 0C3.53948 0 2.31425 0.507508 1.41088 1.41088C0.507508 2.31425 0 3.53948 0 4.81704C0.0718961 7.26151 1.7974 9.2027 4.09808 9.56218ZM27.1048 42.6344C27.1048 44.5037 25.595 46.0135 23.7257 46.0135C21.8564 46.0135 20.3466 44.5037 20.3466 42.6344C20.3466 40.7651 21.8564 39.2553 23.7257 39.2553C25.595 39.3272 27.1048 40.837 27.1048 42.6344V42.6344ZM4.81704 1.50982C6.68634 1.50982 8.19616 3.01964 8.19616 4.88893C8.19616 6.75823 6.68634 8.26805 4.81704 8.26805C2.94774 8.26805 1.43792 6.75823 1.43792 4.88893C1.50982 3.01964 3.01964 1.50982 4.81704 1.50982V1.50982ZM62.262 19.0525V9.56218C64.5627 9.2027 66.3601 7.26151 66.3601 4.81704C66.3601 2.15688 64.2032 0 61.5431 0C59.1705 0 57.1574 1.7974 56.7979 4.09808H28.4709C28.1114 1.7974 26.1702 0 23.7257 0C22.4482 2.69225e-08 21.2229 0.507508 20.3196 1.41088C19.4162 2.31425 18.9087 3.53948 18.9087 4.81704C18.9087 6.0946 19.4162 7.31983 20.3196 8.2232C21.2229 9.12657 22.4482 9.63408 23.7257 9.63408C26.0983 9.63408 28.1114 7.83668 28.4709 5.536H56.8698C57.1574 7.62099 58.811 9.2027 60.896 9.56218V19.0525C58.5953 19.4119 56.7979 21.3531 56.7979 23.7976C56.7979 24.8761 57.1574 25.8107 57.7326 26.6016L45.5102 38.8239C44.7194 38.2487 43.7128 37.8892 42.7063 37.8892C41.7536 37.8892 40.8222 38.1718 40.0301 38.7011C39.2379 39.2304 38.6205 39.9827 38.2559 40.8629C37.8913 41.7431 37.7959 42.7116 37.9818 43.646C38.1677 44.5805 38.6264 45.4388 39.3001 46.1124C39.9738 46.7861 40.8321 47.2449 41.7665 47.4308C42.7009 47.6166 43.6695 47.5212 44.5497 47.1566C45.4299 46.7921 46.1822 46.1746 46.7115 45.3825C47.2408 44.5903 47.5233 43.659 47.5233 42.7063C47.5233 41.6278 47.1638 40.6932 46.5887 39.9023L58.811 27.68C59.6019 28.2552 60.6084 28.6147 61.615 28.6147C64.2751 28.6147 66.432 26.4578 66.432 23.7976C66.3601 21.3531 64.5627 19.3401 62.262 19.0525V19.0525ZM23.7257 8.19616C21.8564 8.19616 20.3466 6.68634 20.3466 4.81704C20.3466 2.94774 21.8564 1.43792 23.7257 1.43792C25.595 1.43792 27.1048 2.94774 27.1048 4.81704C27.1048 6.68634 25.595 8.19616 23.7257 8.19616ZM58.2358 4.81704C58.2358 2.94774 59.7457 1.43792 61.615 1.43792C63.4843 1.43792 64.9941 2.94774 64.9941 4.81704C64.9941 6.68634 63.4843 8.19616 61.615 8.19616C59.7457 8.19616 58.2358 6.68634 58.2358 4.81704ZM42.6344 46.0135C40.7651 46.0135 39.2553 44.5037 39.2553 42.6344C39.2553 40.7651 40.7651 39.2553 42.6344 39.2553C44.5037 39.2553 46.0135 40.7651 46.0135 42.6344C46.0135 44.5037 44.5037 46.0135 42.6344 46.0135V46.0135ZM61.5431 27.1048C59.6738 27.1048 58.1639 25.595 58.1639 23.7257C58.1639 21.8564 59.6738 20.3466 61.5431 20.3466C63.4124 20.3466 64.9222 21.8564 64.9222 23.7257C64.9222 25.595 63.4124 27.1048 61.5431 27.1048ZM66.3601 42.6344C66.3601 41.3568 65.8526 40.1316 64.9492 39.2282C64.0459 38.3249 62.8206 37.8174 61.5431 37.8174C60.2655 37.8174 59.0403 38.3249 58.1369 39.2282C57.2335 40.1316 56.726 41.3568 56.726 42.6344C56.726 45.007 58.5234 47.0201 60.8241 47.3795V56.8698C58.7391 57.1574 57.1574 58.811 56.7979 60.896H47.3795C47.02 58.5953 45.0789 56.7979 42.6344 56.7979C41.3568 56.7979 40.1316 57.3054 39.2282 58.2088C38.3249 59.1122 37.8174 60.3374 37.8174 61.615C37.8174 62.8925 38.3249 64.1177 39.2282 65.0211C40.1316 65.9245 41.3568 66.432 42.6344 66.432C45.007 66.432 47.02 64.6346 47.3795 62.3339H56.8698C57.2293 64.6346 59.1705 66.432 61.615 66.432C64.2751 66.432 66.432 64.2751 66.432 61.615C66.432 59.2424 64.6346 57.2293 62.3339 56.8698V47.3795C64.5627 47.0201 66.3601 45.007 66.3601 42.6344ZM42.6344 64.9222C40.7651 64.9222 39.2553 63.4124 39.2553 61.5431C39.2553 59.6738 40.7651 58.1639 42.6344 58.1639C44.5037 58.1639 46.0135 59.6738 46.0135 61.5431C46.0135 63.4124 44.5037 64.9222 42.6344 64.9222ZM58.2358 42.6344C58.2358 40.7651 59.7457 39.2553 61.615 39.2553C63.4843 39.2553 64.9941 40.7651 64.9941 42.6344C64.9941 44.5037 63.4843 46.0135 61.615 46.0135C59.7457 46.0135 58.2358 44.5037 58.2358 42.6344ZM64.9222 61.5431C64.9222 63.4124 63.4124 64.9222 61.5431 64.9222C59.6738 64.9222 58.1639 63.4124 58.1639 61.5431C58.1639 59.6738 59.6738 58.1639 61.5431 58.1639C63.4124 58.1639 64.9222 59.7457 64.9222 61.5431Z" fill="url(#paint0_linear_1_7)"/>
<path d="M37.9611 24.4447C38.3206 26.7454 40.2618 28.5428 42.7063 28.5428C43.9838 28.5428 45.2091 28.0352 46.1124 27.1319C47.0158 26.2285 47.5233 25.0033 47.5233 23.7257C47.5233 22.4482 47.0158 21.2229 46.1124 20.3196C45.2091 19.4162 43.9838 18.9087 42.7063 18.9087C40.3337 18.9087 38.3206 20.7061 37.9611 23.0068H28.4709C28.1114 20.7061 26.1702 18.9087 23.7257 18.9087C22.4482 18.9087 21.2229 19.4162 20.3196 20.3196C19.4162 21.2229 18.9087 22.4482 18.9087 23.7257C18.9087 25.0033 19.4162 26.2285 20.3196 27.1319C21.2229 28.0352 22.4482 28.5428 23.7257 28.5428C26.0983 28.5428 28.1114 26.7454 28.4709 24.4447H32.497V51.7652L23.4381 60.8241H9.56218C9.2746 58.7391 7.62099 57.1574 5.536 56.7979V47.3795C7.83667 47.0201 9.63408 45.0789 9.63408 42.6344C9.63408 41.3568 9.12657 40.1316 8.2232 39.2282C7.31983 38.3249 6.0946 37.8174 4.81704 37.8174C3.53948 37.8174 2.31425 38.3249 1.41088 39.2282C0.507508 40.1316 0 41.3568 0 42.6344C0 45.007 1.7974 47.0201 4.09808 47.3795V56.8698C1.7974 57.2293 0 59.1705 0 61.615C0 64.2751 2.15688 66.432 4.81704 66.432C7.18961 66.432 9.2027 64.6346 9.56218 62.3339H24.0133L33.935 52.4123V24.4447H37.9611ZM42.6344 20.4185C44.5037 20.4185 46.0135 21.9283 46.0135 23.7976C46.0135 25.6669 44.5037 27.1767 42.6344 27.1767C40.7651 27.1767 39.2553 25.6669 39.2553 23.7976C39.3272 21.9283 40.837 20.4185 42.6344 20.4185V20.4185ZM23.7257 27.1048C21.8564 27.1048 20.3466 25.595 20.3466 23.7257C20.3466 21.8564 21.8564 20.3466 23.7257 20.3466C25.595 20.3466 27.1048 21.8564 27.1048 23.7257C27.1048 25.595 25.595 27.1048 23.7257 27.1048ZM1.50982 42.6344C1.50982 40.7651 3.01964 39.2553 4.88893 39.2553C6.75823 39.2553 8.26805 40.7651 8.26805 42.6344C8.26805 44.5037 6.75823 46.0135 4.88893 46.0135C3.01964 46.0135 1.50982 44.5037 1.50982 42.6344V42.6344ZM4.81704 64.9222C2.94774 64.9222 1.43792 63.4124 1.43792 61.5431C1.43792 59.6738 2.94774 58.1639 4.81704 58.1639C6.68634 58.1639 8.19616 59.6738 8.19616 61.5431C8.19616 63.4124 6.68634 64.9222 4.81704 64.9222Z" fill="url(#paint1_linear_1_7)"/>
<defs>
<linearGradient id="paint0_linear_1_7" x1="1.0028" y1="32.4457" x2="66.1295" y2="32.7958" gradientUnits="userSpaceOnUse">
<stop stop-color="#1D4ED8"/>
<stop offset="1" stop-color="#4338CA"/>
</linearGradient>
<linearGradient id="paint1_linear_1_7" x1="0.717374" y1="42.1193" x2="47.3069" y2="42.3698" gradientUnits="userSpaceOnUse">
<stop stop-color="#1D4ED8"/>
<stop offset="1" stop-color="#4338CA"/>
</linearGradient>
</defs>
</svg>
