<svg width="466" height="423" viewBox="0 0 466 423" fill="none" xmlns="http://www.w3.org/2000/svg">
<path d="M21 32C21 14.3269 35.3269 0 53 0H413C430.673 0 445 14.3269 445 32V344C445 361.673 430.673 376 413 376H53C35.3269 376 21 361.673 21 344V32Z" fill="#535B65"/>
<path d="M69 369.387H391V423H69V396.194V369.387Z" fill="url(#paint0_linear_3_16)"/>
<path d="M402.215 0H418C444.51 0 466 21.1405 466 47.2186V375.781C466 401.86 444.51 423 418 423H391V369.351H402.215C414.603 369.351 424.645 354.57 424.645 336.337V33.0146C424.645 14.7811 414.603 0 402.215 0Z" fill="url(#paint1_linear_3_16)"/>
<path d="M63.785 0H48C21.4903 0 0 21.1405 0 47.2186V375.781C0 401.86 21.4903 423 48 423H75V369.351H63.785C51.3974 369.351 41.3551 354.57 41.3551 336.337V33.0146C41.3551 14.7811 51.3974 0 63.785 0Z" fill="url(#paint2_linear_3_16)"/>
<path d="M192.33 201.023L222.245 108.538C223.313 105.237 226.387 103 229.857 103H242.525C246.508 103 249.888 105.93 250.422 109.877C254.32 138.667 257.084 168.094 258.716 198.158C260.541 228.062 262.18 259.227 263.632 291.651C263.835 296.202 260.199 300 255.644 300H245.426C241.067 300 237.511 296.512 237.43 292.154C237.259 282.932 237.088 273.136 236.917 262.764C236.697 249.397 236.367 235.606 235.927 221.391C235.706 207.176 235.376 192.748 234.936 178.108C234.716 163.468 234.385 149.253 233.945 135.462L206.037 219.725C204.952 222.999 201.892 225.21 198.442 225.21H186.178C182.748 225.21 179.7 223.024 178.6 219.775L150.055 135.462C149.835 149.253 149.505 163.468 149.064 178.108C148.844 192.536 148.514 206.963 148.073 221.391C147.853 235.606 147.523 249.397 147.083 262.764C146.912 273.136 146.741 282.932 146.57 292.154C146.489 296.512 142.933 300 138.574 300H128.334C123.788 300 120.154 296.216 120.349 291.673C120.928 278.191 121.582 264.417 122.312 250.352C123.193 233.379 124.183 216.511 125.284 199.75C126.606 182.988 128.037 166.439 129.578 150.102C131.07 136.264 132.641 122.883 134.291 109.958C134.799 105.976 138.194 103 142.209 103H154.492C157.952 103 161.021 105.225 162.096 108.515L192.33 201.023Z" fill="#E0DDDD"/>
<path d="M310.311 220.48C307.816 220.48 305.657 219.608 303.833 217.863C302.01 216.119 301.098 213.744 301.098 210.74C301.098 207.736 302.01 205.361 303.833 203.617C305.657 201.872 307.816 201 310.311 201C312.902 201 315.061 201.872 316.788 203.617C318.611 205.361 319.523 207.736 319.523 210.74C319.523 213.744 318.611 216.119 316.788 217.863C315.061 219.608 312.902 220.48 310.311 220.48ZM307.288 240.978H290C288.895 240.978 288 240.083 288 238.978V232.947C288 231.843 288.895 230.947 290 230.947H317.091C318.195 230.947 319.091 231.843 319.091 232.947V272.379C319.091 279.066 320.003 283.573 321.826 285.899C323.649 288.128 326.384 289.242 330.03 289.242C332.813 289.242 335.356 288.903 337.659 288.225C338.775 287.909 339.777 287.583 340.664 287.246C341.967 286.752 343.521 287.505 343.754 288.879L344.753 294.765C344.9 295.63 344.466 296.49 343.672 296.864C343.335 297.022 342.962 297.195 342.553 297.383C341.497 297.771 340.25 298.159 338.811 298.546C337.467 298.934 335.932 299.273 334.205 299.564C332.573 299.855 330.846 300 329.023 300C324.801 300 321.298 299.419 318.515 298.256C315.732 297.093 313.477 295.348 311.75 293.022C310.119 290.696 308.967 287.837 308.295 284.445C307.624 280.956 307.288 276.934 307.288 272.379V240.978Z" fill="#E0DDDD"/>
<defs>
<linearGradient id="paint0_linear_3_16" x1="34.5" y1="410.212" x2="410.832" y2="3.1802" gradientUnits="userSpaceOnUse">
<stop stop-color="#2F353D"/>
<stop offset="1" stop-color="#343739"/>
</linearGradient>
<linearGradient id="paint1_linear_3_16" x1="34.5" y1="410.212" x2="410.832" y2="3.1802" gradientUnits="userSpaceOnUse">
<stop stop-color="#2F353D"/>
<stop offset="1" stop-color="#343739"/>
</linearGradient>
<linearGradient id="paint2_linear_3_16" x1="34.5" y1="410.212" x2="410.832" y2="3.1802" gradientUnits="userSpaceOnUse">
<stop stop-color="#2F353D"/>
<stop offset="1" stop-color="#343739"/>
</linearGradient>
</defs>
</svg>
