<svg width="1347" height="410" viewBox="0 0 1347 410" fill="none" xmlns="http://www.w3.org/2000/svg">
<rect width="1347" height="409.854" rx="16" fill="#4A4A4A"/>
<path d="M74.8154 128C74.8154 110.327 89.1423 96 106.815 96H261.185C278.858 96 293.185 110.327 293.185 128V257.648C293.185 275.321 278.858 289.648 261.185 289.648H106.815C89.1423 289.648 74.8154 275.321 74.8154 257.648V128Z" fill="#535B65"/>
<path d="M99.5365 286.242H265.373V313.854H99.5365V286.242Z" fill="url(#paint0_linear_16_5)"/>
<path d="M271.149 96H279.279C292.932 96 304 106.888 304 120.319V289.535C304 302.966 292.932 313.854 279.279 313.854H265.373V286.224H271.149C277.529 286.224 282.701 278.611 282.701 269.221V113.003C282.701 103.613 277.529 96 271.149 96Z" fill="url(#paint1_linear_16_5)"/>
<path d="M96.8507 96H88.721C75.068 96 64 106.888 64 120.319V289.535C64 302.966 75.068 313.854 88.721 313.854H102.627V286.224H96.8507C90.4707 286.224 85.2988 278.611 85.2988 269.221V113.003C85.2988 103.613 90.4707 96 96.8507 96Z" fill="url(#paint2_linear_16_5)"/>
<path d="M229.864 188.041C227.903 188.041 226.206 187.355 224.773 185.985C223.339 184.615 222.623 182.749 222.623 180.389C222.623 178.029 223.339 176.164 224.773 174.794C226.206 173.423 227.903 172.738 229.864 172.738C231.901 172.738 233.598 173.423 234.956 174.794C236.389 176.164 237.106 178.029 237.106 180.389C237.106 182.749 236.389 184.615 234.956 185.985C233.598 187.355 231.901 188.041 229.864 188.041ZM227.488 204.142H214.326C213.222 204.142 212.326 203.247 212.326 202.142V198.263C212.326 197.158 213.222 196.263 214.326 196.263H234.766C235.871 196.263 236.766 197.158 236.766 198.263V228.809C236.766 234.062 237.483 237.602 238.916 239.429C240.349 241.18 242.499 242.056 245.366 242.056C247.553 242.056 249.552 241.789 251.362 241.256C252.006 241.075 252.601 240.888 253.148 240.698C254.463 240.239 256.023 241.004 256.257 242.377L256.886 246.082C257.033 246.947 256.598 247.806 255.803 248.177C255.617 248.263 255.419 248.355 255.21 248.451C254.38 248.755 253.399 249.06 252.268 249.364C251.212 249.669 250.005 249.935 248.647 250.164C247.365 250.392 246.007 250.506 244.574 250.506C241.255 250.506 238.501 250.05 236.314 249.136C234.126 248.222 232.353 246.852 230.996 245.025C229.713 243.198 228.808 240.952 228.28 238.287C227.752 235.547 227.488 232.387 227.488 228.809V204.142Z" fill="#E0DDDD"/>
<path d="M117.562 167.318C117.562 164.001 119.597 160.987 122.769 160.019C128.741 158.198 134.435 157.288 139.851 157.288C143.664 157.288 147.214 157.878 150.502 159.058C153.921 160.106 156.813 161.811 159.18 164.171C164.835 159.582 170.883 157.288 177.327 157.288C180.483 157.288 183.441 157.878 186.203 159.058C189.095 160.238 191.594 162.007 193.698 164.367C195.933 166.727 197.708 169.677 199.023 173.217C200.338 176.757 200.996 180.887 200.996 185.607V243.11C200.996 247.195 197.684 250.506 193.599 250.506V250.506C189.514 250.506 186.203 247.195 186.203 243.11V185.214C186.203 180.494 185.151 176.888 183.047 174.397C180.943 171.906 178.313 170.661 175.157 170.661C173.579 170.661 171.935 171.054 170.226 171.841C168.517 172.627 166.939 173.873 165.492 175.577C166.281 178.593 166.676 181.936 166.676 185.607V207.907C166.676 211.992 163.364 215.304 159.279 215.304V215.304C155.194 215.304 151.882 211.992 151.882 207.907V185.411C151.882 180.822 151.159 177.216 149.713 174.594C148.266 171.972 145.439 170.661 141.231 170.661C138.601 170.661 135.643 171.251 132.355 172.431V243.11C132.355 247.195 129.044 250.506 124.959 250.506V250.506C120.874 250.506 117.562 247.195 117.562 243.11V167.318Z" fill="#E0DDDD"/>
<path d="M352 260.478V180.809H363.403V190.369H366.001L363.98 193.846C363.98 189.404 365.135 185.879 367.444 183.271C369.85 180.664 373.073 179.36 377.115 179.36C381.541 179.36 384.957 181.002 387.363 184.285C389.769 187.569 390.972 192.204 390.972 198.191L387.074 190.369H393.137L390.394 193.846C390.394 189.404 391.597 185.879 394.003 183.271C396.505 180.664 399.776 179.36 403.818 179.36C408.821 179.36 412.67 181.243 415.365 185.01C418.155 188.776 419.551 193.749 419.551 199.93V260.478H407.571V199.785C407.571 196.501 406.849 193.942 405.405 192.107C404.058 190.273 402.038 189.355 399.343 189.355C396.745 189.355 394.676 190.273 393.137 192.107C391.693 193.846 390.972 196.357 390.972 199.64V260.478H380.579V199.785C380.579 196.405 379.809 193.846 378.27 192.107C376.826 190.273 374.757 189.355 372.063 189.355C369.369 189.355 367.348 190.273 366.001 192.107C364.654 193.846 363.98 196.357 363.98 199.64V260.478H352Z" fill="white"/>
<path d="M465.394 261.927C457.022 261.927 450.431 259.803 445.62 255.553C440.808 251.208 438.403 245.365 438.403 238.026C438.403 230.59 440.808 224.748 445.62 220.499C450.431 216.25 456.926 214.125 465.105 214.125H489.643V206.158C489.643 201.233 488.152 197.467 485.168 194.86C482.282 192.156 478.144 190.804 472.755 190.804C468.04 190.804 464.095 191.818 460.92 193.846C457.744 195.777 455.916 198.433 455.435 201.813H442.444C443.31 194.956 446.534 189.5 452.115 185.444C457.696 181.388 464.672 179.36 473.044 179.36C482.186 179.36 489.402 181.726 494.695 186.458C499.987 191.19 502.634 197.612 502.634 205.724V260.478H489.932V245.269H487.767L489.932 243.096C489.932 248.89 487.67 253.477 483.148 256.857C478.721 260.237 472.803 261.927 465.394 261.927ZM468.57 251.642C474.728 251.642 479.78 250.097 483.725 247.007C487.67 243.917 489.643 239.958 489.643 235.129V223.83H465.394C461.064 223.83 457.648 225.038 455.146 227.452C452.644 229.866 451.393 233.149 451.393 237.302C451.393 241.744 452.885 245.269 455.868 247.876C458.947 250.387 463.181 251.642 468.57 251.642Z" fill="white"/>
<path d="M567.53 260.478C560.698 260.478 555.357 258.644 551.508 254.974C547.755 251.304 545.879 246.138 545.879 239.475V192.687H523.506V180.809H545.879V158.357H558.869V180.809H590.624V192.687H558.869V239.475C558.869 245.559 561.756 248.6 567.53 248.6H589.181V260.478H567.53Z" fill="white"/>
<path d="M615.394 260.478V154.735H628.384V196.019H631.127L628.384 199.06C628.384 192.783 630.261 187.955 634.014 184.575C637.766 181.099 642.963 179.36 649.602 179.36C657.589 179.36 663.94 181.823 668.655 186.748C673.37 191.673 675.728 198.384 675.728 206.883V260.478H662.737V208.331C662.737 202.634 661.197 198.24 658.118 195.149C655.135 191.963 651.046 190.369 645.849 190.369C640.461 190.369 636.179 192.059 633.003 195.439C629.924 198.819 628.384 203.599 628.384 209.78V260.478H615.394Z" fill="white"/>
<path d="M731.963 261.927C725.709 261.927 720.224 260.672 715.509 258.161C710.89 255.65 707.281 252.125 704.683 247.587C702.181 242.951 700.93 237.592 700.93 231.508V209.78C700.93 203.599 702.181 198.24 704.683 193.701C707.281 189.162 710.89 185.637 715.509 183.127C720.224 180.616 725.709 179.36 731.963 179.36C738.218 179.36 743.655 180.616 748.274 183.127C752.989 185.637 756.597 189.162 759.099 193.701C761.697 198.24 762.996 203.599 762.996 209.78V223.83H713.632V231.508C713.632 237.785 715.22 242.613 718.396 245.993C721.571 249.276 726.094 250.918 731.963 250.918C736.967 250.918 741.009 250.049 744.088 248.311C747.167 246.476 749.044 243.772 749.717 240.199H762.708C761.842 246.862 758.57 252.174 752.892 256.133C747.311 259.996 740.335 261.927 731.963 261.927ZM750.294 215.139V209.78C750.294 203.503 748.707 198.674 745.531 195.294C742.452 191.914 737.929 190.224 731.963 190.224C726.094 190.224 721.571 191.914 718.396 195.294C715.22 198.674 713.632 203.503 713.632 209.78V213.98H751.305L750.294 215.139Z" fill="white"/>
<path d="M818.366 261.927C809.225 261.927 801.911 259.223 796.427 253.815C790.942 248.311 788.199 240.875 788.199 231.508V180.809H801.19V231.508C801.19 237.495 802.729 242.179 805.809 245.559C808.888 248.842 813.074 250.484 818.366 250.484C823.755 250.484 827.989 248.842 831.068 245.559C834.243 242.179 835.831 237.495 835.831 231.508V180.809H848.822V231.508C848.822 240.875 846.031 248.311 840.45 253.815C834.869 259.223 827.508 261.927 818.366 261.927Z" fill="white"/>
<path d="M902.604 261.637C897.215 261.637 892.5 260.816 888.458 259.175C884.513 257.437 881.338 255.022 878.932 251.932C876.623 248.842 875.227 245.172 874.746 240.923H887.737C888.314 243.724 889.854 245.945 892.356 247.587C894.954 249.228 898.37 250.049 902.604 250.049H908.666C913.766 250.049 917.567 249.035 920.069 247.007C922.57 244.883 923.821 242.082 923.821 238.606C923.821 235.226 922.667 232.57 920.357 230.639C918.144 228.611 914.824 227.259 910.398 226.583L899.717 224.844C891.923 223.492 886.101 221.078 882.252 217.602C878.499 214.029 876.623 208.862 876.623 202.102C876.623 194.956 878.884 189.452 883.407 185.589C887.929 181.63 894.713 179.65 903.758 179.65H909.243C916.845 179.65 922.955 181.437 927.574 185.01C932.193 188.583 934.984 193.411 935.946 199.495H922.955C922.378 196.984 920.935 195.005 918.625 193.556C916.316 192.011 913.189 191.238 909.243 191.238H903.758C898.851 191.238 895.242 192.156 892.933 193.991C890.72 195.825 889.613 198.578 889.613 202.247C889.613 205.531 890.575 207.945 892.5 209.49C894.424 211.035 897.456 212.146 901.593 212.822L912.274 214.56C920.838 215.912 927.045 218.423 930.894 222.092C934.839 225.762 936.812 231.073 936.812 238.026C936.812 245.365 934.454 251.16 929.739 255.409C925.121 259.561 918.096 261.637 908.666 261.637H902.604Z" fill="white"/>
<path d="M960.572 260.478V248.6H988.718V192.687H964.18V180.809H1001.71V248.6H1028.41V260.478H960.572ZM993.769 166.468C990.594 166.468 988.092 165.647 986.264 164.006C984.436 162.364 983.521 160.143 983.521 157.343C983.521 154.445 984.436 152.176 986.264 150.534C988.092 148.796 990.594 147.927 993.769 147.927C996.945 147.927 999.447 148.796 1001.28 150.534C1003.1 152.176 1004.02 154.445 1004.02 157.343C1004.02 160.143 1003.1 162.364 1001.28 164.006C999.447 165.647 996.945 166.468 993.769 166.468Z" fill="white"/>
<path d="M1048.13 260.478V180.809H1061.12V196.019H1063.86L1061.12 199.06C1061.12 192.783 1063 187.955 1066.75 184.575C1070.5 181.099 1075.7 179.36 1082.34 179.36C1090.32 179.36 1096.67 181.823 1101.39 186.748C1106.11 191.673 1108.46 198.384 1108.46 206.883V260.478H1095.47V208.331C1095.47 202.634 1093.93 198.288 1090.85 195.294C1087.87 192.204 1083.78 190.659 1078.58 190.659C1073.2 190.659 1068.91 192.301 1065.74 195.584C1062.66 198.867 1061.12 203.599 1061.12 209.78V260.478H1048.13Z" fill="white"/>
<path d="M1133.67 260.478V248.6H1161.81V192.687H1137.27V180.809H1174.8V248.6H1201.5V260.478H1133.67ZM1166.86 166.468C1163.69 166.468 1161.19 165.647 1159.36 164.006C1157.53 162.364 1156.62 160.143 1156.62 157.343C1156.62 154.445 1157.53 152.176 1159.36 150.534C1161.19 148.796 1163.69 147.927 1166.86 147.927C1170.04 147.927 1172.54 148.796 1174.37 150.534C1176.2 152.176 1177.11 154.445 1177.11 157.343C1177.11 160.143 1176.2 162.364 1174.37 164.006C1172.54 165.647 1170.04 166.468 1166.86 166.468Z" fill="white"/>
<path d="M1259.91 260.478C1253.07 260.478 1247.73 258.644 1243.88 254.974C1240.13 251.304 1238.25 246.138 1238.25 239.475V192.687H1215.88V180.809H1238.25V158.357H1251.25V180.809H1283V192.687H1251.25V239.475C1251.25 245.559 1254.13 248.6 1259.91 248.6H1281.56V260.478H1259.91Z" fill="white"/>
<defs>
<linearGradient id="paint0_linear_16_5" x1="81.7682" y1="307.268" x2="275.587" y2="97.6379" gradientUnits="userSpaceOnUse">
<stop stop-color="#2F353D"/>
<stop offset="1" stop-color="#343739"/>
</linearGradient>
<linearGradient id="paint1_linear_16_5" x1="81.7682" y1="307.268" x2="275.587" y2="97.6379" gradientUnits="userSpaceOnUse">
<stop stop-color="#2F353D"/>
<stop offset="1" stop-color="#343739"/>
</linearGradient>
<linearGradient id="paint2_linear_16_5" x1="81.7682" y1="307.268" x2="275.587" y2="97.6379" gradientUnits="userSpaceOnUse">
<stop stop-color="#2F353D"/>
<stop offset="1" stop-color="#343739"/>
</linearGradient>
</defs>
</svg>
